<?xml version="1.0" encoding="UTF-8" standalone="no"?>
<!-- Created with Inkscape (http://www.inkscape.org/) -->

<svg
   width="31.962173"
   height="32.170097"
   viewBox="0 0 8.4566583 8.5116715"
   version="1.1"
   id="svg1"
   xmlns:inkscape="http://www.inkscape.org/namespaces/inkscape"
   xmlns:sodipodi="http://sodipodi.sourceforge.net/DTD/sodipodi-0.dtd"
   xmlns="http://www.w3.org/2000/svg"
   xmlns:svg="http://www.w3.org/2000/svg">
  <sodipodi:namedview
     id="namedview1"
     pagecolor="#ffffff"
     bordercolor="#000000"
     borderopacity="0.25"
     inkscape:showpageshadow="2"
     inkscape:pageopacity="0.0"
     inkscape:pagecheckerboard="0"
     inkscape:deskcolor="#d1d1d1"
     inkscape:document-units="mm" />
  <defs
     id="defs1" />
  <g
     inkscape:label="Layer 1"
     inkscape:groupmode="layer"
     id="layer1"
     transform="translate(-0.0211489,0.02250268)">
    <rect
       style="fill:#214478;fill-opacity:1;stroke:none;stroke-width:0.0118929;stroke-linecap:round"
       id="rect5"
       width="8.4566584"
       height="8.511672"
       x="0.021148903"
       y="-0.022502678" />
    <g
       id="g6"
       transform="matrix(0.01081619,0,0,0.01081619,-1.9768687,0.03671244)">
      <g
         id="g4"
         transform="matrix(12.412989,0,0,12.412989,-5504.0208,-5251.4687)"
         style="fill:#ffffff">
        <path
           d="m 472.58253,465.30956 q -1.26933,0 -2.42667,-0.26133 -1.12,-0.224 -2.128,-0.74667 -0.97066,-0.52266 -1.82933,-1.38133 -0.85866,-0.85867 -1.53066,-2.05333 l 1.75466,-0.112 v 4.06933 h -3.95733 v -5.86133 l 2.50133,-0.18667 q 0.63467,0.896 1.75467,1.568 1.12,0.672 2.31466,1.04534 1.232,0.336 2.16534,0.336 0.70933,0 1.19466,-0.14934 0.48533,-0.14933 0.74667,-0.41066 0.26133,-0.26134 0.26133,-0.59734 0,-0.224 -0.18667,-0.48533 -0.14933,-0.26133 -0.59733,-0.52267 -0.448,-0.26133 -1.344,-0.59733 -0.85866,-0.336 -2.31466,-0.74667 -2.20267,-0.63466 -3.696,-1.45599 -1.456,-0.82134 -2.20266,-1.97867 -0.70934,-1.15733 -0.70934,-2.72533 0,-1.456 0.784,-2.65066 0.784,-1.232 2.20267,-1.94134 1.41866,-0.74666 3.35999,-0.74666 1.568,0 2.87467,0.448 1.30666,0.448 2.38933,1.41866 1.12,0.97067 2.016,2.576 l -1.75467,0.14933 v -4.10666 h 3.95733 v 5.824 l -2.464,0.224 q -0.67199,-1.008 -1.49333,-1.64267 -0.82133,-0.672 -1.792,-0.97067 -0.93333,-0.336 -2.01599,-0.336 -0.672,0 -1.15734,0.14934 -0.48533,0.112 -0.74666,0.37333 -0.26134,0.26133 -0.26134,0.59733 0,0.26134 0.18667,0.52267 0.18667,0.224 0.63467,0.48533 0.48533,0.26134 1.30666,0.56 0.82134,0.29867 2.05333,0.672 2.16534,0.63467 3.696,1.53067 1.53067,0.85866 2.352,2.05333 0.82133,1.19466 0.82133,2.8 0,1.49333 -0.85866,2.68799 -0.85867,1.19467 -2.38934,1.904 -1.49333,0.672 -3.47199,0.672 z"
           id="text2"
           style="font-weight:800;font-size:37.3333px;font-family:BioRhyme;-inkscape-font-specification:'BioRhyme, Ultra-Bold';fill:#ffffff;stroke-width:1.3115;stroke-linecap:round"
           aria-label="s" />
        <path
           d="m 488.02524,465.30956 c -1.54311,0 -2.98667,-0.39822 -4.33067,-1.19466 -1.344,-0.79645 -2.42667,-1.89156 -3.248,-3.28533 -0.82133,-1.39378 -1.23199,-2.97422 -1.23199,-4.74133 0,-1.344 0.224,-2.576 0.672,-3.696 0.47289,-1.14489 1.13244,-2.128 1.97866,-2.94933 0.84622,-0.84622 1.84177,-1.50578 2.98666,-1.97867 1.14489,-0.47289 2.40178,-0.70933 3.77067,-0.70933 1.49333,0 2.76266,0.29867 3.80799,0.896 1.07023,0.59733 1.97867,1.30667 2.72534,2.128 0.74666,0.79644 1.36888,1.54311 1.86666,2.24 v 3.88266 c -0.52267,-0.72178 -1.15733,-1.41867 -1.904,-2.09066 -0.74667,-0.672 -1.55555,-1.21956 -2.42666,-1.64267 -0.84622,-0.448 -1.70489,-0.672 -2.576,-0.672 -0.77155,0 -1.46844,0.112 -2.09066,0.336 -0.59733,0.224 -1.12,0.53511 -1.568,0.93333 -0.42311,0.39823 -0.74667,0.88356 -0.97067,1.456 -0.224,0.57245 -0.336,1.19467 -0.336,1.86667 0,0.84622 0.17422,1.61777 0.52267,2.31466 0.34844,0.672 0.85866,1.20711 1.53066,1.60533 0.69689,0.37333 1.51822,0.56 2.464,0.56 0.896,-0.0249 1.77955,-0.2862 2.65066,-0.784 0.87111,-0.49777 1.71734,-1.10755 2.53867,-1.82933 0.82133,-0.72177 1.58044,-1.41866 2.27733,-2.09066 v 4.06933 c -0.47289,0.49777 -1.008,1.05777 -1.60533,1.68 -0.57245,0.59733 -1.21956,1.18221 -1.94133,1.75466 -0.72178,0.57245 -1.54311,1.04534 -2.464,1.41867 -0.92089,0.34844 -1.95377,0.52266 -3.09866,0.52266 z m 11.01332,-0.224 c -1.39378,0 -2.576,-0.448 -3.54666,-1.344 -0.97067,-0.896 -1.456,-2.19022 -1.456,-3.88266 v -20.68265 h 5.56266 v 20.15998 c 0,0.39823 0.0871,0.68445 0.26133,0.85867 0.17422,0.14933 0.38578,0.224 0.63467,0.224 0.19911,0 0.37333,-0.0124 0.52266,-0.0373 0.14933,-0.0498 0.27378,-0.0871 0.37334,-0.112 l 1.15733,3.99466 c -0.32355,0.17422 -0.80889,0.34844 -1.456,0.52267 -0.64711,0.19911 -1.33156,0.29866 -2.05333,0.29866 z m -0.0373,-25.90931 v 4.44266 z"
           id="text3"
           style="font-weight:800;font-size:37.3333px;font-family:BioRhyme;-inkscape-font-specification:'BioRhyme, Ultra-Bold';fill:#ffffff;stroke-width:1.3115;stroke-linecap:round"
           aria-label="d"
           sodipodi:nodetypes="ssssccssccccscsccsscccsscccscssssccscsccccssccc" />
        <path
           d="m 506.51661,463.81624 v -16.09065 h 5.67466 v 16.09065 z m -3.50933,1.49333 v -4.44266 h 12.73065 v 4.44266 z m 0,-13.14132 v -4.44266 h 7.61599 v 4.44266 z"
           id="text4"
           style="font-weight:800;font-size:37.3333px;font-family:BioRhyme;-inkscape-font-specification:'BioRhyme, Ultra-Bold';fill:#ffffff;fill-opacity:1;stroke-width:1.3115;stroke-linecap:round"
           aria-label="i"
           sodipodi:nodetypes="ccccccccccccccc" />
      </g>
      <text
         xml:space="preserve"
         style="font-style:normal;font-variant:normal;font-weight:800;font-stretch:normal;font-size:43.3916px;font-family:BioRhyme;-inkscape-font-specification:'BioRhyme, Ultra-Bold';font-variant-ligatures:normal;font-variant-caps:normal;font-variant-numeric:normal;font-variant-east-asian:normal;fill:#ffffff;stroke:none;stroke-width:1.52433;stroke-linecap:round"
         x="232.97298"
         y="580.48053"
         id="text5"><tspan
           sodipodi:role="line"
           id="tspan4"
           x="232.97298"
           y="580.48053"
           style="fill:#ffffff;stroke-width:1.52433">Sekolah Developer Indonesia</tspan></text>
      <g
         id="g5"
         transform="matrix(0.22274301,0,0,0.22274301,739.76841,183.00047)"
         style="fill:#ffffff;fill-opacity:1">
        <g
           id="g8"
           style="fill:#ffffff;fill-opacity:1">
	<path
   style="fill:#ffffff;fill-opacity:1;stroke-width:1.39474"
   d="m 445.07156,442.07713 c 44.79779,-47.33482 69.47081,-109.30191 69.47081,-174.48667 0,-65.18337 -24.67162,-127.15045 -69.46662,-174.483884 C 396.62373,41.890172 331.12236,13.685657 260.63618,13.685657 c -70.61171,0 -136.20095,28.296568 -184.687832,79.673359 C 31.312352,140.65201 6.7313809,202.52844 6.7313809,267.59046 c 0,65.06202 24.5809711,126.93985 69.2183621,174.23144 48.486887,51.37958 114.076117,79.67336 184.687827,79.67336 70.48479,0 135.98616,-28.20452 184.43399,-79.41813 z M 39.029471,283.45986 h 87.171509 c 1.14229,36.52695 6.19964,70.74003 14.42444,101.21519 -17.86109,6.91235 -34.78631,15.40355 -50.470208,25.36063 C 60.127765,374.16425 42.326646,330.09034 39.029471,283.45986 Z M 90.155212,125.14803 c 15.683898,9.95569 32.610508,18.44689 50.470208,25.35924 -8.2248,30.47516 -13.28215,64.68684 -14.42444,101.21519 H 39.029471 c 3.297175,-46.63188 21.098294,-90.7044 51.125741,-126.57443 z M 482.24289,251.72106 h -87.18267 c -1.14508,-36.60366 -6.22056,-70.88089 -14.47744,-101.40348 17.81088,-6.93187 34.69008,-15.43702 50.32934,-25.40108 30.15437,35.91606 48.02523,80.07226 51.33077,126.80456 z m -51.33077,158.54336 c -15.63926,-9.96406 -32.51567,-18.4706 -50.32655,-25.40108 8.25549,-30.52258 13.33096,-64.80121 14.47744,-101.40348 h 87.18267 c -3.30833,46.7323 -21.17919,90.88711 -51.33356,126.80456 z m -154.6841,-47.08378 v -79.72218 h 87.0683 c -1.09069,32.39852 -5.48274,63.41762 -12.89859,91.41014 -23.73994,-6.56227 -48.67797,-10.52334 -74.16971,-11.68796 z m 64.51389,41.93438 c -3.13399,8.29594 -6.5525,16.23203 -10.28205,23.70507 -15.31847,30.68437 -34.47807,50.98627 -54.23323,58.10086 v -91.97222 c 22.19596,1.11301 43.87307,4.55663 64.51528,10.16629 z M 276.22802,251.72106 v -79.72218 c 25.49174,-1.16461 50.42977,-5.12568 74.1711,-11.68935 7.41725,27.99252 11.80791,59.01302 12.8986,91.41014 h -87.0697 z m 0,-111.48748 V 48.259969 c 19.75377,7.114589 38.91476,27.416487 54.23323,58.100861 3.72955,7.47164 7.14807,15.40774 10.28206,23.70507 -20.64361,5.60966 -42.32072,9.05328 -64.51529,10.16768 z m -31.73879,-10e-4 c -22.01325,-1.10464 -43.52439,-4.50363 -64.02015,-10.03379 3.14654,-8.34615 6.58179,-16.32408 10.33226,-23.83478 15.17761,-30.402634 34.1266,-50.619454 53.68789,-57.909782 z m 0,31.76809 v 79.72218 h -86.52435 c 1.0893,-32.34551 5.47019,-63.31581 12.86373,-91.27206 23.5893,6.4758 48.35438,10.39084 73.66062,11.54988 z m 0,111.45958 v 79.72218 c -25.30624,1.15624 -50.07132,5.07129 -73.65923,11.55127 -7.39493,-27.95765 -11.77443,-58.92794 -12.86373,-91.27206 h 86.52296 z m 0,111.49027 v 91.78113 c -19.56129,-7.29032 -38.51168,-27.50714 -53.68789,-57.90977 -3.75047,-7.5107 -7.18572,-15.49143 -10.33226,-23.83479 20.49576,-5.53295 42.0069,-8.93333 64.02015,-10.03657 z m 126.42937,20.20984 c 13.10501,5.21355 25.61726,11.36995 37.37775,18.42596 -20.67848,18.48734 -44.22037,32.70257 -69.64097,42.20356 12.53875,-16.54584 23.45401,-37.03882 32.26322,-60.62952 z m 0,-295.13902 c -8.80781,-23.590704 -19.72168,-44.083674 -32.26183,-60.629528 25.41782,9.500994 48.9597,23.716224 69.63958,42.202168 -11.76049,7.0588 -24.27274,13.2152 -37.37775,18.42736 z m -220.64713,0.18829 c -13.15662,-5.20379 -25.72047,-11.356 -37.52838,-18.4148 20.73566,-18.584974 44.35426,-32.869944 69.86413,-42.404413 -12.57362,16.591879 -23.51539,37.147619 -32.33575,60.819213 z m 0,294.76244 c 8.82036,23.67159 19.76213,44.22733 32.33435,60.81642 -25.50847,-9.53447 -49.12707,-23.81944 -69.86273,-42.40162 11.80791,-7.0574 24.37176,-13.21101 37.52838,-18.4148 z"
   id="path2" />

	
	
	
	
	
	
</g>
      </g>
    </g>
  </g>
</svg>
